<?xml version="1.0" encoding="UTF-8" standalone="no"?>
<!-- Created with Inkscape (http://www.inkscape.org/) -->
<svg id="svg5349" xmlns:rdf="http://www.w3.org/1999/02/22-rdf-syntax-ns#" xmlns="http://www.w3.org/2000/svg" height="8.525mm" viewBox="0 0 20.000728 30.206407" width="5.6444mm" version="1.1" xmlns:cc="http://creativecommons.org/ns#" xmlns:dc="http://purl.org/dc/elements/1.1/">
 <defs id="defs5351">
  <clipPath id="clipPath167" clipPathUnits="userSpaceOnUse">
   <path id="path169" clip-rule="evenodd" d="m-0.000053198 1280h960v-1280h-960"/>
  </clipPath>
  <clipPath id="clipPath157" clipPathUnits="userSpaceOnUse">
   <path id="path159" clip-rule="evenodd" d="m-0.000039167 1280h960v-1280h-960"/>
  </clipPath>
 </defs>
 <metadata id="metadata5354">
  <rdf:RDF>
   <cc:Work rdf:about="">
    <dc:format>image/svg+xml</dc:format>
    <dc:type rdf:resource="http://purl.org/dc/dcmitype/StillImage"/>
    <dc:title/>
   </cc:Work>
  </rdf:RDF>
 </metadata>
 <g id="layer1" transform="matrix(.48163 0 0 .48163 -54.796 -390.1)">
  <g id="g5939" transform="matrix(.98798 0 0 .98806 1.8662 10.415)">
   <g id="g153" transform="matrix(1.25,0,0,-1.25,-725.25,1841.4)">
    <g id="g155" clip-path="url(#clipPath157)">
     <path id="path161" fill-rule="evenodd" fill="#1d76a7" d="m700.79 788.82c-9.43-5.59-21.61-2.47-27.2 6.97-5.59 9.43-2.47 21.61 6.96 27.2 6.06 3.59 13.57 3.7 19.73 0.29l-2.66-4.83c-6.94 3.84-15.66 1.33-19.5-5.6-3.83-6.93-1.32-15.66 5.61-19.49 4.45-2.47 9.87-2.39 14.25 0.21l2.81-4.75z"/>
    </g>
   </g>
   <g id="g163" transform="matrix(1.25,0,0,-1.25,-725.25,1841.4)">
    <g id="g165" clip-path="url(#clipPath167)">
     <path id="path171" fill-rule="evenodd" fill="#1d76a7" d="m690.45 774.98-3.11 3.11 10.36 10.37-10.88 10.89 3.63 3.63 13.99-14-13.99-14z"/>
    </g>
   </g>
  </g>
 </g>
</svg>
